<svg width="900" height="603" viewBox="0 0 900 603" fill="none" xmlns="http://www.w3.org/2000/svg">
<g clip-path="url(#clip0_102_144)">
<path d="M344.239 10.0724C354.531 3.49504 366.49 0 378.704 0H1528C1563.35 0 1592 28.6538 1592 64V539C1592 574.346 1563.35 603 1528 603H64C28.6538 603 0 574.346 0 539V265.125C0 243.287 11.1346 222.957 29.5353 211.197L344.239 10.0724Z" fill="#F5F5F5"/>
<path d="M461.786 70.1389C461.923 62.1729 448.602 55.5551 432.032 55.3576C415.462 55.1601 401.919 61.4577 401.782 69.4237C401.645 77.3897 414.966 84.0075 431.536 84.205C448.106 84.4026 461.649 78.1049 461.786 70.1389Z" fill="#F0F0F0"/>
<path d="M459.358 70.11C459.472 63.4526 447.22 57.9086 431.991 57.7271C416.763 57.5456 404.325 62.7953 404.21 69.4526C404.096 76.11 416.348 81.654 431.577 81.8355C446.805 82.017 459.243 76.7673 459.358 70.11Z" fill="#E0E0E0"/>
<path opacity="0.1" d="M412.23 65.6319C408.223 67.3225 405.688 69.4338 404.607 71.6559C405.546 73.9962 408.037 76.2478 412.115 78.0934C422.752 82.9289 440.258 83.1429 451.117 78.5585C455.115 76.8679 457.65 74.7639 458.731 72.5345C457.801 70.2016 455.31 67.95 451.232 66.1044C440.595 61.2689 423.106 61.0548 412.23 65.6319Z" fill="black"/>
<path d="M409.757 57.873C403.915 58.5522 399.013 63.0998 397.276 67.6104C396.718 69.05 396.39 70.5634 395.902 71.9882C394.99 74.5304 393.413 76.8726 391.284 78.8464C390.282 79.784 388.908 80.5222 388.075 81.5631C387.8 81.9027 388.332 82.5524 388.82 82.3973C390.222 81.8615 391.464 81.0721 392.454 80.0867C393.547 79.1278 394.513 78.0734 395.335 76.9418C397.108 74.5499 397.817 72.0029 398.641 69.3305C399.379 66.9329 400.74 64.6999 402.63 62.7897C404.651 60.8796 407.049 59.2716 409.721 58.0354C409.801 58.0059 409.863 57.8287 409.757 57.873Z" fill="#E0E0E0"/>
<path d="M471.939 78.994C471.442 78.0934 470.299 77.5766 469.563 76.7793C468.737 75.8711 468.082 74.8628 467.622 73.7894C466.549 71.4566 466.097 68.954 465.016 66.6211C464.009 64.4051 462.362 62.4299 460.22 60.8703C459.139 60.1156 457.965 59.4574 456.719 58.9065C456.129 58.6246 455.516 58.3779 454.884 58.1683C454.583 58.0723 454.29 57.9911 453.998 57.9099C453.61 57.8269 453.211 57.7848 452.81 57.7844C452.766 57.7844 452.721 57.8804 452.766 57.8952C455.236 59.0223 457.526 60.4039 459.582 62.0072C461.634 63.7852 463.118 65.9628 463.899 68.3412C464.688 70.6298 465.193 72.9995 466.416 75.17C467.383 76.8827 469.191 79.3927 471.735 79.5182C472.063 79.5772 472.028 79.1491 471.939 78.994Z" fill="#E0E0E0"/>
<path d="M404.323 79.7027C404.252 79.5698 404.128 79.4222 403.933 79.4148C403.286 79.4148 402.923 79.7987 402.532 80.153C402.142 80.5074 401.868 80.8396 401.557 81.2013C400.879 82.001 400.286 82.8482 399.785 83.7335C398.987 85.0919 398.606 87.2401 396.771 87.9341C396.576 88.0079 396.593 88.4361 396.851 88.4139C399.315 88.1925 400.033 86.0959 400.964 84.5234C401.463 83.6559 402.056 82.8281 402.736 82.0503C403.073 81.6664 403.437 81.3121 403.809 80.9356C404.181 80.5591 404.607 80.2343 404.323 79.7027Z" fill="#E0E0E0"/>
<path d="M414.978 84.4865C414.978 84.1912 414.41 83.7483 414.091 84.0805C413.535 84.7778 413.119 85.5457 412.859 86.3543C412.54 87.0926 412.248 87.8308 411.973 88.6059C411.698 89.3811 411.441 90.0824 411.193 90.8649C411.062 91.2404 410.961 91.6226 410.891 92.0092C410.794 92.4261 410.794 92.8547 410.891 93.2716C410.962 93.5005 411.352 93.84 411.627 93.589C411.968 93.2082 412.212 92.7737 412.345 92.3119C412.496 91.9649 412.611 91.5736 412.735 91.2488C412.974 90.5106 413.24 89.7723 413.515 89.0341C413.79 88.2959 414.047 87.5576 414.331 86.8194C414.694 86.0754 414.913 85.2879 414.978 84.4865V84.4865Z" fill="#E0E0E0"/>
<path d="M432.032 90.4368C432.241 89.066 432.312 87.6832 432.245 86.3026C432.245 86.0442 431.678 85.6973 431.58 86.0885C431.261 87.4543 431.075 88.82 430.854 90.1931C430.747 90.8576 430.614 91.522 430.499 92.179C430.446 92.5186 430.41 92.8434 430.384 93.183C430.3 93.514 430.3 93.856 430.384 94.187C430.455 94.3494 430.756 94.6004 430.969 94.4233C431.181 94.2461 431.297 93.781 431.43 93.4266C431.555 93.1327 431.656 92.8317 431.731 92.526C431.846 91.7877 431.944 91.1233 432.032 90.4368Z" fill="#E0E0E0"/>
<path d="M449.273 91.1234C449.273 90.8281 449.185 90.5328 449.131 90.2375C449.025 89.6912 448.91 89.1375 448.795 88.5912C448.588 87.2986 448.222 86.0271 447.704 84.7966C447.571 84.5161 447.093 84.3611 447.048 84.7966C447 86.052 447.125 87.3079 447.421 88.5395C447.527 89.1227 447.624 89.7133 447.722 90.2965C447.775 90.5771 447.828 90.865 447.908 91.1455C447.974 91.5969 448.171 92.0279 448.484 92.4005C448.733 92.6515 448.981 92.5851 449.193 92.4005C449.406 92.2159 449.3 91.4186 449.273 91.1234Z" fill="#E0E0E0"/>
<path d="M462.906 88.9454C462.589 88.4383 462.179 87.9751 461.692 87.5723C461.444 87.3287 461.213 87.0777 460.956 86.8341C460.486 86.3837 460.07 85.926 459.618 85.4462C458.385 84.0446 457.288 82.5635 456.338 81.0167C456.037 80.5443 455.292 80.7731 455.505 81.2973C456.146 82.8999 457.079 84.4112 458.27 85.7784C458.791 86.3904 459.351 86.9793 459.946 87.5428C460.315 87.8919 460.711 88.22 461.133 88.5246C461.526 88.8346 461.964 89.1024 462.436 89.3219C462.5 89.3544 462.575 89.3684 462.649 89.3617C462.723 89.355 462.792 89.328 462.846 89.2849C462.9 89.2419 462.935 89.1852 462.946 89.1237C462.957 89.0623 462.943 88.9996 462.906 88.9454V88.9454Z" fill="#E0E0E0"/>
<path d="M469.989 85.5717C469.581 85.1248 469.097 84.7294 468.553 84.3979C468.192 84.1322 467.838 83.859 467.489 83.5785C466.789 83.0027 466.168 82.3825 465.53 81.755C464.923 81.1474 464.383 80.4951 463.917 79.8061C463.385 79.0678 462.968 78.2115 462.41 77.4511C462.242 77.2075 461.967 77.3994 462.011 77.6283C462.209 78.4772 462.58 79.2914 463.11 80.0349C463.613 80.8261 464.169 81.5927 464.777 82.3309C465.374 83.0421 466.048 83.7067 466.789 84.3167C467.554 85.0695 468.495 85.6848 469.555 86.1254C469.98 86.2583 470.21 85.8818 469.989 85.5717Z" fill="#E0E0E0"/>
<path d="M82.2726 287.72C82.403 279.448 69.7159 272.576 53.9353 272.371C38.1546 272.166 25.2561 278.706 25.1257 286.978C24.9953 295.249 37.6824 302.121 53.4631 302.326C69.2438 302.532 82.1423 295.992 82.2726 287.72Z" fill="#F0F0F0"/>
<path d="M79.9596 287.69C80.0686 280.777 68.3997 275.02 53.8964 274.832C39.3931 274.643 27.5475 280.095 27.4385 287.008C27.3295 293.921 38.9985 299.677 53.5018 299.866C68.0051 300.054 79.8507 294.603 79.9596 287.69Z" fill="#E0E0E0"/>
<path opacity="0.1" d="M35.0761 283.04C31.2603 284.796 28.8458 286.988 27.8159 289.295C28.7108 291.726 31.083 294.064 34.9663 295.98C45.0968 301.001 61.7699 301.224 72.1114 296.463C75.9188 294.708 78.3332 292.523 79.3631 290.208C78.4767 287.785 76.1045 285.447 72.2212 283.531C62.0907 278.51 45.4345 278.287 35.0761 283.04Z" fill="black"/>
<path d="M32.7208 274.983C27.1575 275.689 22.489 280.411 20.8344 285.095C20.3025 286.589 19.9902 288.161 19.5259 289.64C18.6573 292.28 17.1552 294.712 15.1276 296.762C14.1736 297.736 12.8651 298.502 12.0715 299.583C11.8098 299.936 12.3163 300.61 12.7807 300.449C14.1163 299.893 15.2987 299.073 16.2419 298.05C17.2833 297.054 18.2032 295.959 18.9856 294.784C20.674 292.3 21.3494 289.656 22.1345 286.881C22.8367 284.391 24.1337 282.072 25.9334 280.089C27.8579 278.105 30.1421 276.436 32.687 275.152C32.763 275.121 32.8221 274.937 32.7208 274.983Z" fill="#E0E0E0"/>
<path d="M91.942 296.915C91.4692 295.98 90.3802 295.444 89.6795 294.616C88.8923 293.672 88.2688 292.625 87.8307 291.511C86.8092 289.089 86.3787 286.49 85.3487 284.067C84.3898 281.766 82.8212 279.715 80.7816 278.096C79.7515 277.312 78.6339 276.629 77.447 276.057C76.8852 275.764 76.3012 275.508 75.6994 275.29C75.4124 275.19 75.1338 275.106 74.8552 275.022C74.4856 274.935 74.1056 274.892 73.724 274.891C73.6818 274.891 73.6396 274.991 73.6818 275.006C76.0344 276.177 78.2155 277.611 80.1737 279.276C82.1275 281.123 83.5409 283.384 84.285 285.854C85.0364 288.23 85.5176 290.691 86.6826 292.944C87.6028 294.723 89.3249 297.329 91.7478 297.46C92.0602 297.521 92.0264 297.076 91.942 296.915Z" fill="#E0E0E0"/>
<path d="M27.5458 297.651C27.4782 297.513 27.36 297.36 27.1743 297.352C26.558 297.352 26.2119 297.751 25.8405 298.119C25.469 298.487 25.2073 298.832 24.9118 299.207C24.2661 300.038 23.7012 300.918 23.2234 301.837C22.4636 303.247 22.1006 305.478 20.3531 306.199C20.1674 306.275 20.1843 306.72 20.4291 306.697C22.776 306.467 23.4598 304.29 24.3462 302.657C24.8219 301.756 25.3871 300.897 26.0346 300.089C26.3554 299.69 26.7016 299.322 27.0561 298.931C27.4107 298.54 27.8159 298.203 27.5458 297.651Z" fill="#E0E0E0"/>
<path d="M37.6932 302.619C37.6932 302.312 37.1529 301.852 36.849 302.197C36.3194 302.921 35.9231 303.719 35.6756 304.558C35.3717 305.325 35.0931 306.091 34.8314 306.896C34.5697 307.701 34.3249 308.429 34.0885 309.242C33.9638 309.632 33.868 310.029 33.8014 310.43C33.7088 310.863 33.7088 311.308 33.8014 311.741C33.869 311.979 34.2404 312.331 34.5021 312.071C34.8266 311.675 35.0593 311.224 35.1859 310.745C35.3295 310.384 35.4392 309.978 35.5574 309.641C35.7853 308.874 36.0386 308.107 36.3003 307.341C36.562 306.574 36.8068 305.808 37.077 305.041C37.4231 304.269 37.6311 303.451 37.6932 302.619V302.619Z" fill="#E0E0E0"/>
<path d="M53.9358 308.797C54.134 307.374 54.2018 305.938 54.1384 304.504C54.1384 304.236 53.5981 303.876 53.5053 304.282C53.2013 305.7 53.0241 307.119 52.813 308.544C52.7117 309.234 52.5851 309.924 52.4753 310.607C52.4247 310.959 52.3909 311.296 52.3656 311.649C52.2854 311.993 52.2854 312.348 52.3656 312.692C52.4331 312.86 52.7201 313.121 52.9228 312.937C53.1254 312.753 53.2351 312.27 53.3617 311.902C53.4815 311.597 53.5774 311.284 53.6488 310.967C53.7585 310.2 53.8514 309.51 53.9358 308.797Z" fill="#E0E0E0"/>
<path d="M70.3555 309.51C70.3555 309.204 70.2711 308.897 70.2205 308.59C70.1191 308.023 70.0094 307.448 69.8997 306.881C69.7027 305.539 69.3548 304.218 68.8613 302.941C68.7347 302.649 68.2788 302.488 68.2366 302.941C68.1902 304.244 68.3092 305.548 68.5911 306.827C68.6924 307.433 68.7853 308.046 68.8782 308.652C68.9288 308.943 68.9795 309.242 69.0554 309.533C69.1177 310.002 69.3062 310.45 69.6042 310.836C69.8406 311.097 70.0769 311.028 70.2795 310.836C70.4822 310.645 70.3808 309.817 70.3555 309.51Z" fill="#E0E0E0"/>
<path d="M83.3394 307.249C83.0371 306.722 82.647 306.241 82.1828 305.823C81.9464 305.57 81.7269 305.309 81.4821 305.056C81.0347 304.589 80.6379 304.114 80.2074 303.615C79.0332 302.16 77.9887 300.622 77.0838 299.016C76.7968 298.525 76.0877 298.763 76.2903 299.307C76.9011 300.971 77.7894 302.541 78.9242 303.96C79.4205 304.596 79.9531 305.207 80.5197 305.792C80.8711 306.155 81.249 306.496 81.651 306.812C82.025 307.134 82.4419 307.412 82.8919 307.64C82.9525 307.674 83.0236 307.688 83.0943 307.681C83.1649 307.674 83.2309 307.646 83.2821 307.601C83.3333 307.557 83.3667 307.498 83.377 307.434C83.3874 307.37 83.3742 307.305 83.3394 307.249V307.249Z" fill="#E0E0E0"/>
<path d="M90.0846 303.746C89.6959 303.281 89.2352 302.871 88.717 302.527C88.3736 302.251 88.036 301.967 87.7039 301.676C87.037 301.078 86.446 300.434 85.8382 299.782C85.2597 299.151 84.7454 298.474 84.3018 297.759C83.7952 296.992 83.3985 296.103 82.8666 295.313C82.7062 295.06 82.4445 295.259 82.4867 295.497C82.6747 296.379 83.0289 297.224 83.5335 297.996C84.012 298.818 84.5419 299.614 85.1206 300.38C85.6895 301.119 86.331 301.809 87.037 302.442C87.7658 303.224 88.6619 303.863 89.6709 304.32C90.0761 304.458 90.2956 304.068 90.0846 303.746Z" fill="#E0E0E0"/>
<path d="M394.801 178.574C395.005 166.17 375.181 155.864 350.524 155.557C325.866 155.249 305.712 165.056 305.509 177.46C305.305 189.865 325.129 200.17 349.786 200.478C374.443 200.785 394.597 190.979 394.801 178.574Z" fill="#F0F0F0"/>
<path d="M391.187 178.529C391.357 168.162 373.125 159.529 350.463 159.247C327.802 158.964 309.293 167.139 309.123 177.505C308.952 187.872 327.185 196.505 349.847 196.788C372.508 197.071 391.017 188.896 391.187 178.529Z" fill="#E0E0E0"/>
<path opacity="0.1" d="M321.056 171.556C315.094 174.188 311.322 177.476 309.712 180.936C311.111 184.581 314.817 188.087 320.885 190.961C336.714 198.491 362.765 198.824 378.924 191.685C384.873 189.052 388.646 185.776 390.255 182.304C388.87 178.672 385.163 175.166 379.096 172.292C363.267 164.762 337.241 164.429 321.056 171.556Z" fill="black"/>
<path d="M317.376 159.474C308.684 160.531 301.389 167.613 298.804 174.637C297.973 176.878 297.485 179.235 296.759 181.454C295.402 185.412 293.055 189.06 289.887 192.133C288.396 193.593 286.352 194.743 285.112 196.364C284.703 196.893 285.494 197.904 286.22 197.663C288.307 196.828 290.154 195.599 291.628 194.065C293.255 192.571 294.693 190.93 295.915 189.167C298.553 185.443 299.608 181.477 300.835 177.315C301.932 173.582 303.959 170.104 306.771 167.13C309.778 164.156 313.347 161.652 317.324 159.727C317.442 159.681 317.535 159.405 317.376 159.474Z" fill="#E0E0E0"/>
<path d="M409.909 192.363C409.171 190.961 407.469 190.156 406.374 188.915C405.144 187.5 404.17 185.93 403.485 184.259C401.889 180.626 401.217 176.729 399.607 173.096C398.109 169.646 395.658 166.57 392.471 164.141C390.862 162.966 389.115 161.941 387.261 161.083C386.383 160.644 385.47 160.26 384.53 159.934C384.082 159.784 383.646 159.658 383.211 159.531C382.634 159.402 382.04 159.336 381.444 159.336C381.378 159.336 381.312 159.485 381.378 159.508C385.054 161.264 388.462 163.415 391.521 165.912C394.574 168.68 396.783 172.071 397.945 175.775C399.119 179.339 399.871 183.029 401.691 186.408C403.129 189.075 405.82 192.984 409.606 193.18C410.094 193.271 410.041 192.605 409.909 192.363Z" fill="#E0E0E0"/>
<path d="M309.29 193.467C309.185 193.26 309 193.03 308.71 193.018C307.747 193.018 307.206 193.616 306.626 194.168C306.045 194.72 305.636 195.237 305.175 195.8C304.166 197.046 303.283 198.365 302.537 199.743C301.349 201.859 300.782 205.204 298.052 206.285C297.762 206.4 297.788 207.066 298.171 207.032C301.838 206.687 302.906 203.422 304.291 200.974C305.034 199.623 305.917 198.334 306.929 197.122C307.43 196.525 307.971 195.973 308.525 195.387C309.079 194.8 309.712 194.294 309.29 193.467Z" fill="#E0E0E0"/>
<path d="M325.146 200.916C325.146 200.456 324.301 199.767 323.827 200.284C322.999 201.37 322.38 202.565 321.993 203.825C321.518 204.974 321.083 206.124 320.674 207.331C320.265 208.538 319.883 209.63 319.513 210.848C319.318 211.433 319.169 212.028 319.065 212.63C318.92 213.279 318.92 213.947 319.065 214.596C319.17 214.952 319.751 215.481 320.16 215.09C320.667 214.497 321.03 213.821 321.228 213.102C321.452 212.561 321.624 211.952 321.808 211.446C322.164 210.297 322.56 209.147 322.969 207.998C323.378 206.848 323.761 205.698 324.183 204.549C324.723 203.39 325.049 202.164 325.146 200.916V200.916Z" fill="#E0E0E0"/>
<path d="M350.525 210.182C350.834 208.047 350.94 205.894 350.841 203.744C350.841 203.342 349.997 202.801 349.852 203.411C349.377 205.537 349.1 207.664 348.77 209.802C348.612 210.837 348.414 211.872 348.243 212.895C348.163 213.424 348.111 213.929 348.071 214.458C347.946 214.974 347.946 215.506 348.071 216.022C348.177 216.274 348.625 216.665 348.942 216.389C349.258 216.114 349.43 215.389 349.628 214.837C349.815 214.38 349.965 213.911 350.076 213.435C350.248 212.285 350.393 211.251 350.525 210.182Z" fill="#E0E0E0"/>
<path d="M376.18 211.251C376.18 210.791 376.048 210.331 375.969 209.871C375.811 209.021 375.64 208.158 375.468 207.308C375.16 205.295 374.617 203.315 373.846 201.399C373.648 200.962 372.935 200.721 372.869 201.399C372.797 203.354 372.983 205.309 373.424 207.227C373.582 208.135 373.727 209.055 373.872 209.963C373.951 210.4 374.03 210.848 374.149 211.285C374.246 211.988 374.541 212.659 375.006 213.24C375.376 213.63 375.745 213.527 376.062 213.24C376.378 212.952 376.22 211.711 376.18 211.251Z" fill="#E0E0E0"/>
<path d="M396.468 207.859C395.996 207.07 395.386 206.349 394.661 205.721C394.291 205.342 393.948 204.951 393.566 204.572C392.867 203.87 392.247 203.158 391.574 202.41C389.739 200.228 388.107 197.922 386.693 195.513C386.245 194.777 385.137 195.134 385.454 195.95C386.408 198.446 387.796 200.799 389.569 202.928C390.345 203.881 391.177 204.798 392.062 205.675C392.611 206.219 393.202 206.73 393.83 207.204C394.414 207.687 395.065 208.104 395.769 208.446C395.863 208.496 395.974 208.518 396.085 208.508C396.195 208.497 396.298 208.455 396.378 208.388C396.458 208.321 396.51 208.233 396.527 208.137C396.543 208.041 396.522 207.944 396.468 207.859V207.859Z" fill="#E0E0E0"/>
<path d="M407.007 202.606C406.4 201.91 405.68 201.294 404.87 200.778C404.334 200.364 403.806 199.939 403.287 199.502C402.245 198.605 401.322 197.64 400.372 196.663C399.468 195.716 398.665 194.701 397.972 193.628C397.18 192.478 396.56 191.145 395.729 189.961C395.478 189.581 395.07 189.88 395.136 190.237C395.429 191.558 395.983 192.826 396.771 193.984C397.519 195.216 398.347 196.41 399.251 197.559C400.14 198.667 401.142 199.702 402.245 200.652C403.384 201.824 404.784 202.782 406.361 203.468C406.994 203.675 407.337 203.089 407.007 202.606Z" fill="#E0E0E0"/>
<path d="M141.867 339.276C107.298 357.968 107.298 388.276 141.867 406.977C176.437 425.679 232.499 425.669 267.069 406.977C301.639 388.285 301.649 357.968 267.069 339.276C232.489 320.584 176.447 320.584 141.867 339.276Z" fill="#E6E6E6"/>
<path d="M235.654 541.528C235.967 521.255 205.518 504.413 167.644 503.91C129.771 503.408 98.8143 519.435 98.5014 539.707C98.1885 559.98 128.637 576.822 166.511 577.325C204.385 577.828 235.341 561.801 235.654 541.528Z" fill="#F0F0F0"/>
<path d="M230.103 541.454C230.365 524.511 202.359 510.402 167.551 509.94C132.743 509.478 104.314 522.838 104.052 539.781C103.791 556.724 131.796 570.833 166.604 571.295C201.412 571.757 229.842 558.396 230.103 541.454Z" fill="#E0E0E0"/>
<path opacity="0.1" d="M122.383 530.057C113.225 534.36 107.43 539.733 104.958 545.388C107.106 551.344 112.799 557.074 122.119 561.771C146.432 574.077 186.448 574.622 211.267 562.955C220.405 558.652 226.2 553.298 228.672 547.624C226.544 541.687 220.851 535.957 211.531 531.26C187.218 518.954 147.243 518.409 122.383 530.057Z" fill="black"/>
<path d="M116.73 510.312C103.378 512.04 92.1737 523.613 88.2025 535.093C86.9261 538.756 86.1764 542.608 85.0621 546.234C82.9775 552.703 79.3724 558.664 74.5061 563.687C72.2167 566.073 69.0762 567.952 67.1717 570.601C66.5436 571.465 67.7592 573.119 68.8736 572.724C72.0792 571.36 74.9169 569.352 77.1806 566.844C79.68 564.404 81.8877 561.72 83.7654 558.84C87.8176 552.753 89.4385 546.271 91.3227 539.47C93.0082 533.368 96.1209 527.685 100.44 522.824C105.059 517.963 110.541 513.871 116.649 510.725C116.831 510.65 116.973 510.199 116.73 510.312Z" fill="#E0E0E0"/>
<path d="M258.861 564.063C257.726 561.771 255.112 560.456 253.431 558.427C251.541 556.115 250.045 553.549 248.993 550.818C246.542 544.881 245.509 538.512 243.037 532.575C240.735 526.935 236.971 521.909 232.076 517.939C229.603 516.019 226.921 514.344 224.072 512.942C222.724 512.224 221.323 511.597 219.878 511.063C219.19 510.819 218.521 510.612 217.852 510.406C216.965 510.194 216.053 510.087 215.137 510.086C215.036 510.086 214.935 510.33 215.036 510.368C220.682 513.237 225.917 516.752 230.617 520.833C235.306 525.358 238.698 530.9 240.484 536.953C242.287 542.777 243.442 548.808 246.238 554.331C248.446 558.69 252.58 565.078 258.395 565.397C259.144 565.547 259.063 564.458 258.861 564.063Z" fill="#E0E0E0"/>
<path d="M104.31 565.867C104.148 565.529 103.864 565.153 103.419 565.134C101.939 565.134 101.109 566.111 100.217 567.013C99.3258 567.915 98.6977 568.76 97.9886 569.681C96.4388 571.716 95.083 573.872 93.9364 576.125C92.1129 579.582 91.2417 585.049 87.0477 586.815C86.6019 587.003 86.6424 588.093 87.23 588.036C92.8626 587.473 94.5037 582.137 96.6311 578.135C97.7727 575.927 99.1291 573.821 100.683 571.841C101.453 570.864 102.284 569.962 103.135 569.004C103.986 568.046 104.958 567.219 104.31 565.867Z" fill="#E0E0E0"/>
<path d="M128.664 578.041C128.664 577.29 127.367 576.163 126.638 577.008C125.366 578.782 124.415 580.737 123.821 582.795C123.092 584.673 122.423 586.552 121.795 588.525C121.167 590.498 120.58 592.282 120.012 594.274C119.713 595.229 119.483 596.202 119.323 597.186C119.101 598.247 119.101 599.338 119.323 600.399C119.485 600.981 120.377 601.845 121.005 601.206C121.784 600.237 122.342 599.132 122.646 597.956C122.991 597.073 123.254 596.077 123.538 595.251C124.085 593.372 124.692 591.493 125.321 589.614C125.949 587.736 126.536 585.857 127.185 583.978C128.015 582.085 128.515 580.081 128.664 578.041V578.041Z" fill="#E0E0E0"/>
<path d="M167.646 593.184C168.121 589.696 168.284 586.176 168.132 582.663C168.132 582.005 166.835 581.122 166.612 582.118C165.883 585.594 165.457 589.07 164.951 592.564C164.708 594.255 164.404 595.946 164.14 597.618C164.019 598.482 163.938 599.309 163.877 600.173C163.685 601.016 163.685 601.886 163.877 602.728C164.039 603.142 164.728 603.78 165.214 603.329C165.701 602.879 165.964 601.695 166.268 600.793C166.555 600.045 166.785 599.279 166.957 598.501C167.22 596.622 167.443 594.931 167.646 593.184Z" fill="#E0E0E0"/>
<path d="M207.053 594.931C207.053 594.18 206.851 593.428 206.729 592.677C206.486 591.286 206.223 589.877 205.959 588.487C205.487 585.198 204.652 581.962 203.467 578.83C203.163 578.116 202.069 577.722 201.968 578.83C201.856 582.025 202.142 585.221 202.819 588.356C203.062 589.84 203.285 591.343 203.508 592.827C203.629 593.541 203.751 594.274 203.933 594.988C204.083 596.136 204.535 597.233 205.25 598.182C205.817 598.82 206.385 598.651 206.871 598.182C207.357 597.712 207.114 595.683 207.053 594.931Z" fill="#E0E0E0"/>
<path d="M238.215 589.389C237.489 588.098 236.553 586.92 235.439 585.894C234.872 585.274 234.345 584.636 233.757 584.016C232.683 582.87 231.731 581.705 230.698 580.484C227.88 576.917 225.373 573.147 223.201 569.211C222.512 568.009 220.811 568.591 221.297 569.925C222.763 574.004 224.895 577.85 227.618 581.329C228.809 582.887 230.088 584.385 231.447 585.819C232.291 586.708 233.198 587.543 234.162 588.318C235.06 589.107 236.061 589.788 237.141 590.347C237.286 590.43 237.457 590.465 237.626 590.448C237.796 590.431 237.954 590.363 238.077 590.253C238.2 590.143 238.28 589.999 238.305 589.843C238.33 589.686 238.298 589.527 238.215 589.389V589.389Z" fill="#E0E0E0"/>
<path d="M254.403 580.803C253.47 579.666 252.365 578.659 251.121 577.816C250.297 577.139 249.486 576.444 248.689 575.73C247.089 574.265 245.671 572.687 244.212 571.09C242.823 569.543 241.589 567.883 240.524 566.13C239.309 564.251 238.356 562.072 237.08 560.136C236.695 559.517 236.067 560.005 236.168 560.587C236.619 562.748 237.469 564.82 238.68 566.712C239.829 568.726 241.1 570.677 242.49 572.555C243.855 574.365 245.394 576.057 247.089 577.609C248.838 579.525 250.989 581.091 253.41 582.212C254.383 582.55 254.91 581.592 254.403 580.803Z" fill="#E0E0E0"/>
<path d="M596.654 270.528C596.967 250.255 566.518 233.413 528.644 232.91C490.771 232.408 459.814 248.435 459.501 268.707C459.188 288.98 489.637 305.822 527.511 306.325C565.385 306.828 596.341 290.801 596.654 270.528Z" fill="#F0F0F0"/>
<path d="M591.103 270.454C591.365 253.511 563.359 239.402 528.551 238.94C493.743 238.478 465.314 251.838 465.052 268.781C464.791 285.724 492.796 299.833 527.604 300.295C562.412 300.757 590.842 287.396 591.103 270.454Z" fill="#E0E0E0"/>
<path opacity="0.1" d="M483.383 259.057C474.225 263.36 468.43 268.733 465.958 274.388C468.106 280.344 473.799 286.074 483.119 290.771C507.432 303.077 547.448 303.622 572.267 291.955C581.405 287.652 587.2 282.298 589.672 276.624C587.544 270.687 581.851 264.957 572.531 260.26C548.218 247.954 508.243 247.409 483.383 259.057Z" fill="black"/>
<path d="M477.73 239.312C464.378 241.04 453.174 252.613 449.203 264.093C447.926 267.756 447.176 271.608 446.062 275.234C443.977 281.703 440.372 287.664 435.506 292.687C433.217 295.073 430.076 296.952 428.172 299.601C427.544 300.465 428.759 302.119 429.874 301.724C433.079 300.36 435.917 298.352 438.181 295.844C440.68 293.404 442.888 290.72 444.765 287.84C448.818 281.753 450.438 275.271 452.323 268.47C454.008 262.368 457.121 256.685 461.44 251.824C466.059 246.963 471.541 242.871 477.649 239.725C477.831 239.65 477.973 239.199 477.73 239.312Z" fill="#E0E0E0"/>
<path d="M619.861 293.063C618.726 290.771 616.112 289.456 614.431 287.427C612.541 285.115 611.045 282.549 609.993 279.818C607.542 273.881 606.509 267.512 604.037 261.575C601.735 255.935 597.971 250.909 593.076 246.939C590.603 245.019 587.921 243.344 585.072 241.942C583.724 241.224 582.323 240.597 580.878 240.063C580.19 239.819 579.521 239.612 578.852 239.406C577.965 239.194 577.053 239.087 576.137 239.086C576.036 239.086 575.935 239.33 576.036 239.368C581.682 242.237 586.917 245.752 591.617 249.833C596.306 254.358 599.698 259.9 601.484 265.953C603.287 271.777 604.442 277.808 607.238 283.331C609.446 287.69 613.58 294.078 619.395 294.397C620.144 294.547 620.063 293.458 619.861 293.063Z" fill="#E0E0E0"/>
<path d="M465.31 294.867C465.148 294.529 464.864 294.153 464.419 294.134C462.939 294.134 462.109 295.111 461.217 296.013C460.326 296.915 459.698 297.76 458.989 298.681C457.439 300.716 456.083 302.872 454.936 305.125C453.113 308.582 452.242 314.049 448.048 315.815C447.602 316.003 447.642 317.093 448.23 317.036C453.863 316.473 455.504 311.137 457.631 307.135C458.773 304.927 460.129 302.821 461.683 300.841C462.453 299.864 463.284 298.962 464.135 298.004C464.986 297.046 465.958 296.219 465.31 294.867Z" fill="#E0E0E0"/>
<path d="M489.664 307.041C489.664 306.29 488.367 305.163 487.638 306.008C486.366 307.782 485.415 309.737 484.821 311.795C484.092 313.673 483.423 315.552 482.795 317.525C482.167 319.498 481.58 321.282 481.012 323.274C480.713 324.229 480.483 325.202 480.323 326.186C480.101 327.247 480.101 328.338 480.323 329.399C480.485 329.981 481.377 330.845 482.005 330.206C482.784 329.237 483.342 328.132 483.646 326.956C483.991 326.073 484.254 325.077 484.538 324.251C485.085 322.372 485.692 320.493 486.321 318.614C486.949 316.736 487.536 314.857 488.185 312.978C489.015 311.085 489.515 309.081 489.664 307.041V307.041Z" fill="#E0E0E0"/>
<path d="M528.646 322.184C529.121 318.696 529.284 315.176 529.132 311.663C529.132 311.005 527.835 310.122 527.612 311.118C526.883 314.594 526.457 318.07 525.951 321.564C525.708 323.255 525.404 324.946 525.14 326.618C525.019 327.482 524.938 328.309 524.877 329.173C524.685 330.016 524.685 330.886 524.877 331.728C525.039 332.142 525.728 332.78 526.214 332.329C526.701 331.879 526.964 330.695 527.268 329.793C527.555 329.045 527.785 328.279 527.957 327.501C528.22 325.622 528.443 323.931 528.646 322.184Z" fill="#E0E0E0"/>
<path d="M568.053 323.931C568.053 323.18 567.851 322.428 567.729 321.677C567.486 320.286 567.223 318.877 566.959 317.487C566.487 314.198 565.652 310.962 564.467 307.83C564.163 307.116 563.069 306.722 562.968 307.83C562.856 311.025 563.142 314.221 563.819 317.356C564.062 318.84 564.285 320.343 564.508 321.827C564.629 322.541 564.751 323.274 564.933 323.988C565.083 325.136 565.535 326.233 566.25 327.182C566.817 327.82 567.385 327.651 567.871 327.182C568.357 326.712 568.114 324.683 568.053 323.931Z" fill="#E0E0E0"/>
<path d="M599.215 318.389C598.489 317.098 597.553 315.92 596.439 314.894C595.872 314.274 595.345 313.636 594.757 313.016C593.683 311.87 592.731 310.705 591.698 309.484C588.88 305.917 586.373 302.147 584.201 298.211C583.512 297.009 581.811 297.591 582.297 298.925C583.763 303.004 585.895 306.85 588.618 310.329C589.809 311.887 591.088 313.385 592.447 314.819C593.291 315.708 594.198 316.543 595.162 317.318C596.06 318.107 597.061 318.788 598.141 319.347C598.286 319.43 598.457 319.465 598.626 319.448C598.796 319.431 598.954 319.363 599.077 319.253C599.2 319.143 599.28 318.999 599.305 318.843C599.33 318.686 599.298 318.527 599.215 318.389V318.389Z" fill="#E0E0E0"/>
<path d="M615.403 309.803C614.47 308.666 613.365 307.659 612.121 306.816C611.297 306.139 610.486 305.444 609.689 304.73C608.089 303.265 606.671 301.687 605.212 300.09C603.823 298.543 602.589 296.883 601.524 295.13C600.309 293.251 599.356 291.072 598.08 289.136C597.695 288.517 597.067 289.005 597.168 289.587C597.619 291.748 598.469 293.82 599.68 295.712C600.829 297.726 602.1 299.677 603.49 301.555C604.855 303.365 606.394 305.057 608.089 306.609C609.838 308.525 611.989 310.091 614.41 311.212C615.383 311.55 615.91 310.592 615.403 309.803Z" fill="#E0E0E0"/>
<path d="M439.801 440.574C440.005 428.17 420.181 417.864 395.524 417.557C370.866 417.249 350.712 427.056 350.509 439.46C350.305 451.865 370.129 462.17 394.786 462.478C419.443 462.785 439.597 452.979 439.801 440.574Z" fill="#F0F0F0"/>
<path d="M436.187 440.529C436.357 430.162 418.125 421.529 395.463 421.247C372.802 420.964 354.293 429.139 354.123 439.505C353.952 449.872 372.185 458.505 394.847 458.788C417.508 459.071 436.017 450.896 436.187 440.529Z" fill="#E0E0E0"/>
<path opacity="0.1" d="M366.056 433.556C360.094 436.188 356.322 439.476 354.712 442.936C356.111 446.581 359.817 450.087 365.885 452.961C381.714 460.491 407.765 460.824 423.924 453.685C429.873 451.052 433.646 447.776 435.255 444.304C433.87 440.672 430.163 437.166 424.096 434.292C408.267 426.762 382.241 426.429 366.056 433.556Z" fill="black"/>
<path d="M362.376 421.474C353.684 422.531 346.389 429.613 343.804 436.637C342.973 438.878 342.485 441.235 341.759 443.454C340.402 447.412 338.055 451.06 334.887 454.133C333.396 455.593 331.352 456.743 330.112 458.364C329.703 458.893 330.494 459.904 331.22 459.663C333.307 458.828 335.154 457.599 336.628 456.065C338.255 454.571 339.693 452.93 340.915 451.167C343.553 447.443 344.608 443.477 345.835 439.315C346.932 435.582 348.959 432.104 351.771 429.13C354.778 426.156 358.347 423.652 362.324 421.727C362.442 421.681 362.535 421.405 362.376 421.474Z" fill="#E0E0E0"/>
<path d="M454.909 454.363C454.171 452.961 452.469 452.156 451.374 450.915C450.144 449.5 449.17 447.93 448.485 446.259C446.889 442.626 446.217 438.729 444.607 435.096C443.109 431.646 440.658 428.57 437.471 426.141C435.862 424.966 434.115 423.941 432.261 423.083C431.383 422.644 430.47 422.26 429.53 421.934C429.082 421.784 428.646 421.658 428.211 421.531C427.634 421.402 427.04 421.336 426.444 421.336C426.378 421.336 426.312 421.485 426.378 421.508C430.054 423.264 433.462 425.415 436.521 427.912C439.574 430.68 441.783 434.071 442.945 437.775C444.119 441.339 444.871 445.029 446.691 448.408C448.129 451.075 450.82 454.984 454.606 455.18C455.094 455.271 455.041 454.605 454.909 454.363Z" fill="#E0E0E0"/>
<path d="M354.29 455.467C354.185 455.26 354 455.03 353.71 455.018C352.747 455.018 352.206 455.616 351.626 456.168C351.045 456.72 350.636 457.237 350.175 457.8C349.166 459.046 348.283 460.365 347.537 461.743C346.349 463.859 345.782 467.204 343.052 468.285C342.762 468.4 342.788 469.066 343.171 469.032C346.838 468.687 347.906 465.422 349.291 462.974C350.034 461.623 350.917 460.334 351.929 459.122C352.43 458.525 352.971 457.973 353.525 457.387C354.079 456.8 354.712 456.294 354.29 455.467Z" fill="#E0E0E0"/>
<path d="M370.146 462.916C370.146 462.456 369.301 461.767 368.827 462.284C367.999 463.37 367.38 464.565 366.993 465.825C366.518 466.974 366.083 468.124 365.674 469.331C365.265 470.538 364.883 471.63 364.513 472.848C364.318 473.433 364.169 474.028 364.065 474.63C363.92 475.279 363.92 475.947 364.065 476.596C364.17 476.952 364.751 477.481 365.16 477.09C365.667 476.497 366.03 475.821 366.228 475.102C366.452 474.561 366.624 473.952 366.808 473.446C367.164 472.297 367.56 471.147 367.969 469.998C368.378 468.848 368.761 467.698 369.183 466.549C369.723 465.39 370.049 464.164 370.146 462.916V462.916Z" fill="#E0E0E0"/>
<path d="M395.525 472.182C395.834 470.047 395.94 467.894 395.841 465.744C395.841 465.342 394.997 464.801 394.852 465.411C394.377 467.537 394.1 469.664 393.77 471.802C393.612 472.837 393.414 473.872 393.243 474.895C393.163 475.424 393.111 475.929 393.071 476.458C392.946 476.974 392.946 477.506 393.071 478.022C393.177 478.274 393.625 478.665 393.942 478.389C394.258 478.114 394.43 477.389 394.628 476.837C394.815 476.38 394.965 475.911 395.076 475.435C395.248 474.285 395.393 473.251 395.525 472.182Z" fill="#E0E0E0"/>
<path d="M421.18 473.251C421.18 472.791 421.048 472.331 420.969 471.871C420.811 471.021 420.64 470.158 420.468 469.308C420.16 467.295 419.617 465.315 418.846 463.399C418.648 462.962 417.935 462.721 417.869 463.399C417.797 465.354 417.983 467.309 418.424 469.227C418.582 470.135 418.727 471.055 418.872 471.963C418.951 472.4 419.03 472.848 419.149 473.285C419.246 473.988 419.541 474.659 420.006 475.24C420.376 475.63 420.745 475.527 421.062 475.24C421.378 474.952 421.22 473.711 421.18 473.251Z" fill="#E0E0E0"/>
<path d="M441.468 469.859C440.996 469.07 440.386 468.349 439.661 467.721C439.291 467.342 438.948 466.951 438.566 466.572C437.867 465.87 437.247 465.158 436.574 464.41C434.739 462.228 433.107 459.922 431.693 457.513C431.245 456.777 430.137 457.134 430.454 457.95C431.408 460.446 432.796 462.799 434.569 464.928C435.345 465.881 436.177 466.798 437.062 467.675C437.611 468.219 438.202 468.73 438.83 469.204C439.414 469.687 440.065 470.104 440.769 470.446C440.863 470.496 440.974 470.518 441.085 470.508C441.195 470.497 441.298 470.455 441.378 470.388C441.458 470.321 441.51 470.233 441.527 470.137C441.543 470.041 441.522 469.944 441.468 469.859V469.859Z" fill="#E0E0E0"/>
<path d="M452.007 464.606C451.4 463.91 450.68 463.294 449.87 462.778C449.334 462.364 448.806 461.939 448.287 461.502C447.245 460.605 446.322 459.64 445.372 458.663C444.468 457.716 443.665 456.701 442.972 455.628C442.18 454.478 441.56 453.145 440.729 451.961C440.478 451.581 440.07 451.88 440.136 452.237C440.429 453.558 440.983 454.826 441.771 455.984C442.519 457.216 443.347 458.41 444.251 459.559C445.14 460.667 446.142 461.702 447.245 462.652C448.384 463.824 449.784 464.782 451.361 465.468C451.994 465.675 452.337 465.089 452.007 464.606Z" fill="#E0E0E0"/>
<path d="M779.786 233.139C779.923 225.173 766.602 218.555 750.032 218.358C733.462 218.16 719.919 224.458 719.782 232.424C719.645 240.39 732.967 247.008 749.536 247.205C766.106 247.403 779.649 241.105 779.786 233.139Z" fill="#F0F0F0"/>
<path d="M777.358 233.11C777.472 226.453 765.22 220.909 749.991 220.727C734.763 220.546 722.325 225.795 722.211 232.453C722.096 239.11 734.349 244.654 749.577 244.836C764.805 245.017 777.243 239.767 777.358 233.11Z" fill="#E0E0E0"/>
<path opacity="0.1" d="M730.23 228.632C726.224 230.322 723.688 232.434 722.607 234.656C723.547 236.996 726.037 239.248 730.115 241.093C740.752 245.929 758.259 246.143 769.117 241.558C773.115 239.868 775.65 237.764 776.732 235.534C775.801 233.202 773.31 230.95 769.232 229.104C758.595 224.269 741.106 224.055 730.23 228.632Z" fill="black"/>
<path d="M727.757 220.873C721.915 221.552 717.013 226.1 715.276 230.61C714.718 232.05 714.39 233.563 713.902 234.988C712.99 237.53 711.413 239.873 709.284 241.846C708.282 242.784 706.908 243.522 706.075 244.563C705.8 244.903 706.332 245.552 706.82 245.397C708.222 244.861 709.464 244.072 710.454 243.087C711.547 242.128 712.513 241.073 713.335 239.942C715.108 237.55 715.817 235.003 716.641 232.331C717.379 229.933 718.74 227.7 720.63 225.79C722.651 223.88 725.049 222.272 727.721 221.035C727.801 221.006 727.863 220.829 727.757 220.873Z" fill="#E0E0E0"/>
<path d="M789.939 241.994C789.443 241.093 788.299 240.577 787.564 239.779C786.737 238.871 786.082 237.863 785.622 236.789C784.55 234.457 784.098 231.954 783.016 229.621C782.009 227.405 780.362 225.43 778.221 223.87C777.139 223.116 775.966 222.457 774.719 221.907C774.129 221.625 773.516 221.378 772.884 221.168C772.583 221.072 772.291 220.991 771.998 220.91C771.61 220.827 771.211 220.785 770.81 220.784C770.766 220.784 770.722 220.88 770.766 220.895C773.236 222.022 775.526 223.404 777.582 225.007C779.634 226.785 781.118 228.963 781.899 231.341C782.688 233.63 783.193 236 784.417 238.17C785.383 239.883 787.191 242.393 789.735 242.518C790.063 242.577 790.028 242.149 789.939 241.994Z" fill="#E0E0E0"/>
<path d="M722.323 242.703C722.252 242.57 722.128 242.422 721.933 242.415C721.286 242.415 720.923 242.799 720.532 243.153C720.142 243.507 719.868 243.84 719.557 244.201C718.879 245.001 718.286 245.848 717.785 246.733C716.987 248.092 716.606 250.24 714.771 250.934C714.576 251.008 714.593 251.436 714.851 251.414C717.315 251.192 718.033 249.096 718.964 247.523C719.463 246.656 720.056 245.828 720.736 245.05C721.073 244.666 721.437 244.312 721.809 243.936C722.181 243.559 722.607 243.234 722.323 242.703Z" fill="#E0E0E0"/>
<path d="M732.978 247.487C732.978 247.191 732.41 246.748 732.091 247.081C731.535 247.778 731.119 248.546 730.859 249.354C730.54 250.093 730.248 250.831 729.973 251.606C729.698 252.381 729.441 253.082 729.193 253.865C729.062 254.24 728.961 254.623 728.891 255.009C728.794 255.426 728.794 255.855 728.891 256.272C728.962 256.5 729.352 256.84 729.627 256.589C729.968 256.208 730.212 255.774 730.345 255.312C730.496 254.965 730.611 254.574 730.735 254.249C730.974 253.511 731.24 252.772 731.515 252.034C731.79 251.296 732.047 250.558 732.331 249.819C732.694 249.075 732.913 248.288 732.978 247.487V247.487Z" fill="#E0E0E0"/>
<path d="M750.033 253.437C750.241 252.066 750.312 250.683 750.245 249.303C750.245 249.044 749.678 248.697 749.581 249.089C749.262 250.454 749.075 251.82 748.854 253.193C748.747 253.858 748.614 254.522 748.499 255.179C748.446 255.519 748.411 255.843 748.384 256.183C748.3 256.514 748.3 256.856 748.384 257.187C748.455 257.349 748.756 257.6 748.969 257.423C749.182 257.246 749.297 256.781 749.43 256.427C749.556 256.133 749.656 255.832 749.731 255.526C749.847 254.788 749.944 254.123 750.033 253.437Z" fill="#E0E0E0"/>
<path d="M767.273 254.123C767.273 253.828 767.185 253.533 767.131 253.237C767.025 252.691 766.91 252.137 766.795 251.591C766.588 250.299 766.222 249.027 765.704 247.797C765.571 247.516 765.093 247.361 765.048 247.797C765 249.052 765.125 250.308 765.421 251.54C765.527 252.123 765.624 252.713 765.722 253.297C765.775 253.577 765.828 253.865 765.908 254.145C765.974 254.597 766.171 255.028 766.484 255.4C766.733 255.651 766.981 255.585 767.193 255.4C767.406 255.216 767.3 254.419 767.273 254.123Z" fill="#E0E0E0"/>
<path d="M780.907 251.945C780.589 251.438 780.18 250.975 779.692 250.572C779.444 250.329 779.213 250.078 778.956 249.834C778.487 249.384 778.07 248.926 777.618 248.446C776.385 247.045 775.288 245.563 774.338 244.017C774.037 243.544 773.292 243.773 773.505 244.297C774.146 245.9 775.079 247.411 776.271 248.778C776.792 249.39 777.351 249.979 777.946 250.543C778.315 250.892 778.712 251.22 779.134 251.525C779.526 251.835 779.964 252.102 780.437 252.322C780.5 252.354 780.575 252.368 780.649 252.362C780.723 252.355 780.793 252.328 780.846 252.285C780.9 252.242 780.935 252.185 780.946 252.124C780.957 252.062 780.943 252 780.907 251.945V251.945Z" fill="#E0E0E0"/>
<path d="M787.989 248.572C787.581 248.125 787.097 247.729 786.553 247.398C786.192 247.132 785.838 246.859 785.489 246.578C784.789 246.003 784.168 245.383 783.53 244.755C782.923 244.147 782.383 243.495 781.917 242.806C781.385 242.068 780.968 241.211 780.41 240.451C780.242 240.207 779.967 240.399 780.011 240.628C780.209 241.477 780.58 242.291 781.11 243.035C781.613 243.826 782.169 244.593 782.777 245.331C783.374 246.042 784.048 246.707 784.789 247.317C785.554 248.069 786.495 248.685 787.555 249.125C787.98 249.258 788.21 248.882 787.989 248.572Z" fill="#E0E0E0"/>
<path d="M709.801 414.574C710.005 402.17 690.181 391.864 665.524 391.557C640.866 391.249 620.712 401.056 620.509 413.46C620.305 425.865 640.129 436.17 664.786 436.478C689.443 436.785 709.597 426.979 709.801 414.574Z" fill="#F0F0F0"/>
<path d="M706.187 414.529C706.357 404.162 688.125 395.529 665.463 395.247C642.802 394.964 624.293 403.139 624.123 413.505C623.952 423.872 642.185 432.505 664.847 432.788C687.508 433.071 706.017 424.896 706.187 414.529Z" fill="#E0E0E0"/>
<path opacity="0.1" d="M636.056 407.556C630.094 410.188 626.322 413.476 624.712 416.936C626.111 420.581 629.817 424.087 635.885 426.961C651.714 434.491 677.765 434.824 693.924 427.685C699.873 425.052 703.646 421.776 705.255 418.304C703.87 414.672 700.163 411.166 694.096 408.292C678.267 400.762 652.241 400.429 636.056 407.556Z" fill="black"/>
<path d="M632.376 395.474C623.684 396.531 616.389 403.613 613.804 410.637C612.973 412.878 612.485 415.235 611.759 417.454C610.402 421.412 608.055 425.06 604.887 428.133C603.396 429.593 601.352 430.743 600.112 432.364C599.703 432.893 600.494 433.904 601.22 433.663C603.307 432.828 605.154 431.599 606.628 430.065C608.255 428.571 609.693 426.93 610.915 425.167C613.553 421.443 614.608 417.477 615.835 413.315C616.932 409.582 618.959 406.104 621.771 403.13C624.778 400.156 628.347 397.652 632.324 395.727C632.442 395.681 632.535 395.405 632.376 395.474Z" fill="#E0E0E0"/>
<path d="M724.909 428.363C724.17 426.961 722.469 426.156 721.374 424.915C720.144 423.5 719.17 421.93 718.485 420.259C716.889 416.626 716.216 412.729 714.607 409.096C713.109 405.646 710.658 402.57 707.471 400.141C705.861 398.966 704.115 397.941 702.26 397.083C701.383 396.644 700.47 396.26 699.53 395.934C699.082 395.784 698.646 395.658 698.211 395.531C697.633 395.402 697.04 395.336 696.443 395.336C696.377 395.336 696.311 395.485 696.377 395.508C700.053 397.264 703.461 399.415 706.521 401.912C709.574 404.68 711.782 408.071 712.945 411.775C714.119 415.339 714.871 419.029 716.691 422.408C718.129 425.075 720.82 428.984 724.606 429.18C725.094 429.271 725.041 428.605 724.909 428.363Z" fill="#E0E0E0"/>
<path d="M624.29 429.467C624.185 429.26 624 429.03 623.71 429.018C622.747 429.018 622.206 429.616 621.626 430.168C621.045 430.72 620.636 431.237 620.175 431.8C619.166 433.046 618.283 434.365 617.537 435.743C616.349 437.859 615.782 441.204 613.052 442.285C612.762 442.4 612.788 443.066 613.171 443.032C616.838 442.687 617.906 439.422 619.291 436.974C620.034 435.623 620.917 434.334 621.929 433.122C622.43 432.525 622.971 431.973 623.525 431.387C624.079 430.8 624.712 430.294 624.29 429.467Z" fill="#E0E0E0"/>
<path d="M640.146 436.916C640.146 436.456 639.301 435.767 638.827 436.284C637.999 437.37 637.38 438.565 636.993 439.825C636.518 440.974 636.083 442.124 635.674 443.331C635.265 444.538 634.883 445.63 634.513 446.848C634.318 447.433 634.169 448.028 634.065 448.63C633.92 449.279 633.92 449.947 634.065 450.596C634.17 450.952 634.751 451.481 635.16 451.09C635.667 450.497 636.03 449.821 636.228 449.102C636.452 448.561 636.624 447.952 636.808 447.446C637.164 446.297 637.56 445.147 637.969 443.998C638.378 442.848 638.761 441.698 639.183 440.549C639.723 439.39 640.049 438.164 640.146 436.916V436.916Z" fill="#E0E0E0"/>
<path d="M665.525 446.182C665.834 444.047 665.94 441.894 665.841 439.744C665.841 439.342 664.997 438.801 664.852 439.411C664.377 441.537 664.1 443.664 663.77 445.802C663.612 446.837 663.414 447.872 663.243 448.895C663.163 449.424 663.111 449.929 663.071 450.458C662.946 450.974 662.946 451.506 663.071 452.022C663.177 452.274 663.625 452.665 663.942 452.389C664.258 452.114 664.43 451.389 664.628 450.837C664.815 450.38 664.965 449.911 665.076 449.435C665.248 448.285 665.393 447.251 665.525 446.182Z" fill="#E0E0E0"/>
<path d="M691.18 447.251C691.18 446.791 691.048 446.331 690.969 445.871C690.811 445.021 690.64 444.158 690.468 443.308C690.16 441.295 689.617 439.315 688.846 437.399C688.648 436.962 687.935 436.721 687.869 437.399C687.797 439.354 687.983 441.309 688.424 443.227C688.582 444.135 688.727 445.055 688.872 445.963C688.951 446.4 689.03 446.848 689.149 447.285C689.246 447.988 689.541 448.659 690.006 449.24C690.376 449.63 690.745 449.527 691.062 449.24C691.378 448.952 691.22 447.711 691.18 447.251Z" fill="#E0E0E0"/>
<path d="M711.468 443.859C710.996 443.07 710.386 442.349 709.661 441.721C709.291 441.342 708.948 440.951 708.566 440.572C707.867 439.87 707.247 439.158 706.574 438.41C704.739 436.228 703.107 433.922 701.693 431.513C701.245 430.777 700.137 431.134 700.454 431.95C701.408 434.446 702.796 436.799 704.569 438.928C705.345 439.881 706.177 440.798 707.062 441.675C707.611 442.219 708.202 442.73 708.83 443.204C709.414 443.687 710.065 444.104 710.769 444.446C710.863 444.496 710.974 444.518 711.085 444.508C711.195 444.497 711.298 444.455 711.378 444.388C711.458 444.321 711.51 444.233 711.527 444.137C711.543 444.041 711.522 443.944 711.468 443.859V443.859Z" fill="#E0E0E0"/>
<path d="M722.007 438.606C721.4 437.91 720.68 437.294 719.87 436.778C719.334 436.364 718.806 435.939 718.287 435.502C717.245 434.605 716.322 433.64 715.372 432.663C714.468 431.716 713.665 430.701 712.972 429.628C712.18 428.478 711.56 427.145 710.729 425.961C710.478 425.581 710.07 425.88 710.136 426.237C710.429 427.558 710.983 428.826 711.771 429.984C712.519 431.216 713.347 432.41 714.251 433.559C715.14 434.667 716.142 435.702 717.245 436.652C718.384 437.824 719.784 438.782 721.361 439.468C721.994 439.675 722.337 439.089 722.007 438.606Z" fill="#E0E0E0"/>
<path d="M598.18 536.124C598.446 518.168 572.596 503.251 540.443 502.806C508.29 502.361 482.009 516.556 481.743 534.512C481.478 552.468 507.328 567.385 539.481 567.831C571.634 568.276 597.915 554.08 598.18 536.124Z" fill="#F0F0F0"/>
<path d="M593.468 536.059C593.69 521.053 569.914 508.556 540.364 508.147C510.813 507.738 486.678 519.571 486.456 534.577C486.234 549.584 510.009 562.08 539.56 562.489C569.11 562.899 593.246 551.065 593.468 536.059Z" fill="#E0E0E0"/>
<path opacity="0.1" d="M502.018 525.965C494.243 529.776 489.324 534.535 487.225 539.544C489.048 544.819 493.882 549.894 501.794 554.054C522.435 564.954 556.406 565.436 577.477 555.103C585.235 551.292 590.154 546.55 592.253 541.524C590.447 536.266 585.613 531.19 577.701 527.03C557.06 516.131 523.123 515.648 502.018 525.965Z" fill="black"/>
<path d="M497.219 508.476C485.883 510.007 476.371 520.257 473 530.425C471.916 533.67 471.28 537.081 470.334 540.293C468.564 546.023 465.504 551.302 461.372 555.752C459.429 557.865 456.763 559.529 455.146 561.875C454.613 562.641 455.645 564.105 456.591 563.756C459.312 562.548 461.721 560.768 463.643 558.547C465.765 556.386 467.639 554.009 469.233 551.458C472.673 546.067 474.049 540.326 475.649 534.302C477.08 528.898 479.722 523.864 483.389 519.558C487.311 515.253 491.965 511.628 497.15 508.842C497.305 508.775 497.425 508.376 497.219 508.476Z" fill="#E0E0E0"/>
<path d="M617.882 556.085C616.918 554.054 614.699 552.89 613.272 551.092C611.668 549.045 610.398 546.772 609.505 544.353C607.424 539.095 606.546 533.453 604.448 528.195C602.494 523.2 599.298 518.748 595.142 515.232C593.044 513.531 590.766 512.047 588.348 510.806C587.203 510.17 586.013 509.614 584.787 509.142C584.203 508.925 583.635 508.742 583.067 508.559C582.314 508.372 581.54 508.277 580.763 508.276C580.676 508.276 580.59 508.493 580.676 508.526C585.47 511.067 589.914 514.181 593.904 517.795C597.885 521.803 600.765 526.711 602.281 532.072C603.811 537.231 604.792 542.572 607.166 547.465C609.04 551.325 612.549 556.983 617.486 557.266C618.122 557.399 618.054 556.434 617.882 556.085Z" fill="#E0E0E0"/>
<path d="M486.675 557.682C486.537 557.382 486.296 557.049 485.918 557.033C484.662 557.033 483.957 557.898 483.2 558.697C482.443 559.496 481.91 560.244 481.308 561.06C479.993 562.862 478.841 564.772 477.868 566.768C476.32 569.829 475.58 574.672 472.02 576.236C471.641 576.402 471.676 577.368 472.175 577.318C476.956 576.818 478.35 572.093 480.156 568.548C481.125 566.593 482.276 564.727 483.596 562.974C484.249 562.108 484.955 561.309 485.677 560.461C486.4 559.612 487.225 558.88 486.675 557.682Z" fill="#E0E0E0"/>
<path d="M507.35 568.465C507.35 567.799 506.249 566.801 505.63 567.55C504.551 569.121 503.743 570.853 503.239 572.675C502.62 574.339 502.052 576.003 501.519 577.75C500.985 579.498 500.487 581.079 500.005 582.842C499.751 583.689 499.556 584.55 499.42 585.422C499.231 586.361 499.231 587.328 499.42 588.267C499.558 588.783 500.315 589.549 500.848 588.983C501.509 588.124 501.983 587.145 502.241 586.104C502.534 585.322 502.757 584.44 502.998 583.708C503.462 582.044 503.978 580.38 504.512 578.716C505.045 577.052 505.544 575.388 506.094 573.723C506.799 572.046 507.223 570.271 507.35 568.465V568.465Z" fill="#E0E0E0"/>
<path d="M540.444 581.877C540.848 578.787 540.986 575.671 540.857 572.559C540.857 571.976 539.756 571.194 539.567 572.076C538.948 575.155 538.586 578.233 538.156 581.328C537.95 582.826 537.692 584.323 537.468 585.804C537.365 586.57 537.296 587.302 537.245 588.068C537.081 588.814 537.081 589.585 537.245 590.331C537.382 590.697 537.967 591.263 538.38 590.863C538.793 590.464 539.016 589.415 539.274 588.617C539.518 587.954 539.714 587.276 539.859 586.587C540.083 584.922 540.272 583.425 540.444 581.877Z" fill="#E0E0E0"/>
<path d="M573.899 583.425C573.899 582.759 573.727 582.094 573.624 581.428C573.418 580.197 573.194 578.949 572.97 577.717C572.569 574.804 571.86 571.937 570.855 569.164C570.597 568.532 569.668 568.182 569.582 569.164C569.487 571.994 569.73 574.824 570.304 577.601C570.511 578.915 570.7 580.246 570.889 581.561C570.992 582.193 571.096 582.842 571.25 583.475C571.377 584.492 571.761 585.464 572.368 586.304C572.85 586.869 573.332 586.72 573.744 586.304C574.157 585.888 573.951 584.09 573.899 583.425Z" fill="#E0E0E0"/>
<path d="M600.354 578.516C599.738 577.373 598.943 576.329 597.998 575.421C597.516 574.871 597.069 574.306 596.57 573.757C595.658 572.741 594.85 571.71 593.973 570.628C591.58 567.469 589.452 564.13 587.608 560.644C587.024 559.579 585.579 560.095 585.992 561.276C587.236 564.889 589.046 568.295 591.358 571.377C592.369 572.756 593.455 574.084 594.609 575.354C595.325 576.141 596.095 576.88 596.914 577.567C597.676 578.266 598.525 578.87 599.442 579.364C599.566 579.438 599.711 579.469 599.855 579.454C599.999 579.439 600.133 579.378 600.237 579.281C600.342 579.184 600.41 579.056 600.431 578.918C600.452 578.779 600.425 578.638 600.354 578.516V578.516Z" fill="#E0E0E0"/>
<path d="M614.097 570.911C613.305 569.904 612.367 569.013 611.311 568.265C610.611 567.666 609.923 567.051 609.247 566.418C607.888 565.12 606.684 563.723 605.445 562.308C604.267 560.938 603.219 559.468 602.315 557.915C601.283 556.251 600.474 554.321 599.391 552.607C599.064 552.057 598.531 552.49 598.617 553.006C599 554.92 599.721 556.755 600.75 558.431C601.724 560.214 602.804 561.942 603.983 563.606C605.142 565.209 606.449 566.707 607.888 568.082C609.373 569.779 611.199 571.166 613.254 572.159C614.08 572.459 614.527 571.61 614.097 570.911Z" fill="#E0E0E0"/>
<path d="M869.786 36.2893C869.923 27.718 856.602 20.5974 840.032 20.3848C823.462 20.1723 809.919 26.9484 809.782 35.5197C809.645 44.0909 822.967 51.2116 839.536 51.4241C856.106 51.6366 869.649 44.8605 869.786 36.2893Z" fill="#F0F0F0"/>
<path d="M867.358 36.2581C867.472 29.0949 855.22 23.1297 839.991 22.9343C824.763 22.739 812.325 28.3876 812.211 35.5508C812.096 42.714 824.349 48.6792 839.577 48.8745C854.806 49.0698 867.243 43.4213 867.358 36.2581Z" fill="#E0E0E0"/>
<path opacity="0.1" d="M820.23 31.4398C816.224 33.2588 813.688 35.5306 812.607 37.9215C813.547 40.4395 816.037 42.8622 820.115 44.8481C830.752 50.0509 848.259 50.2813 859.117 45.3485C863.115 43.5295 865.65 41.2656 866.732 38.8668C865.801 36.3567 863.31 33.9339 859.232 31.9481C848.595 26.7452 831.106 26.5149 820.23 31.4398Z" fill="black"/>
<path d="M817.757 23.0912C811.915 23.822 807.013 28.7151 805.276 33.5685C804.718 35.1174 804.39 36.7458 803.902 38.2788C802.99 41.0142 801.413 43.5344 799.284 45.6582C798.282 46.667 796.908 47.4613 796.075 48.5813C795.8 48.9467 796.332 49.6457 796.82 49.4789C798.222 48.9023 799.464 48.053 800.454 46.9926C801.547 45.9609 802.513 44.8264 803.335 43.6088C805.108 41.0352 805.817 38.2947 806.641 35.4192C807.379 32.8395 808.74 30.4368 810.63 28.3815C812.651 26.3262 815.049 24.5961 817.721 23.266C817.801 23.2342 817.863 23.0436 817.757 23.0912Z" fill="#E0E0E0"/>
<path d="M879.939 45.8171C879.443 44.848 878.299 44.292 877.564 43.4341C876.737 42.4569 876.082 41.3719 875.622 40.2171C874.55 37.707 874.098 35.0142 873.016 32.5041C872.009 30.1197 870.362 27.9944 868.221 26.3163C867.139 25.5043 865.966 24.7961 864.719 24.2033C864.129 23.9 863.516 23.6346 862.884 23.409C862.583 23.3058 862.291 23.2184 861.998 23.131C861.61 23.0417 861.211 22.9963 860.81 22.996C860.766 22.996 860.722 23.0992 860.766 23.1151C863.236 24.328 865.526 25.8144 867.582 27.5395C869.634 29.4527 871.118 31.7957 871.899 34.3549C872.688 36.8173 873.193 39.3671 874.417 41.7025C875.383 43.5453 877.191 46.246 879.735 46.3811C880.063 46.4446 880.028 45.9839 879.939 45.8171Z" fill="#E0E0E0"/>
<path d="M812.323 46.5797C812.252 46.4367 812.128 46.2778 811.933 46.2699C811.286 46.2699 810.923 46.6829 810.532 47.0642C810.142 47.4455 809.868 47.803 809.557 48.1922C808.879 49.0526 808.286 49.9642 807.785 50.9167C806.987 52.3783 806.606 54.6898 804.771 55.4365C804.576 55.5159 804.593 55.9766 804.851 55.9528C807.315 55.7145 808.033 53.4586 808.964 51.7667C809.463 50.8332 810.056 49.9425 810.736 49.1057C811.073 48.6926 811.437 48.3113 811.809 47.9062C812.181 47.5011 812.607 47.1516 812.323 46.5797Z" fill="#E0E0E0"/>
<path d="M822.978 51.7269C822.978 51.4092 822.41 50.9326 822.091 51.2901C821.535 52.0403 821.119 52.8666 820.859 53.7366C820.54 54.531 820.248 55.3253 819.973 56.1593C819.698 56.9934 819.441 57.748 819.193 58.59C819.062 58.9939 818.961 59.4052 818.891 59.8212C818.794 60.2697 818.794 60.7309 818.891 61.1795C818.962 61.4257 819.352 61.7911 819.627 61.5211C819.968 61.1113 820.212 60.6438 820.345 60.1469C820.496 59.7735 820.611 59.3525 820.735 59.003C820.974 58.2087 821.24 57.4144 821.515 56.62C821.79 55.8257 822.047 55.0314 822.331 54.237C822.694 53.4365 822.913 52.5892 822.978 51.7269V51.7269Z" fill="#E0E0E0"/>
<path d="M840.033 58.1293C840.241 56.6544 840.312 55.1665 840.245 53.681C840.245 53.403 839.678 53.0297 839.581 53.4507C839.262 54.9202 839.075 56.3897 838.854 57.8671C838.747 58.582 838.614 59.2969 838.499 60.0039C838.446 60.3693 838.411 60.7188 838.384 61.0842C838.3 61.4403 838.3 61.8083 838.384 62.1645C838.455 62.3392 838.756 62.6093 838.969 62.4187C839.182 62.228 839.297 61.7276 839.43 61.3463C839.556 61.03 839.656 60.7062 839.731 60.3772C839.847 59.5829 839.944 58.868 840.033 58.1293Z" fill="#E0E0E0"/>
<path d="M857.273 58.868C857.273 58.5502 857.185 58.2325 857.131 57.9148C857.025 57.327 856.91 56.7312 856.795 56.1434C856.588 54.7527 856.222 53.3845 855.704 52.0606C855.571 51.7587 855.093 51.5919 855.048 52.0606C855 53.4113 855.125 54.7626 855.421 56.0878C855.527 56.7153 855.624 57.3508 855.722 57.9783C855.775 58.2802 855.828 58.59 855.908 58.8918C855.974 59.3775 856.171 59.8413 856.484 60.2422C856.733 60.5122 856.981 60.4407 857.193 60.2422C857.406 60.0436 857.3 59.1857 857.273 58.868Z" fill="#E0E0E0"/>
<path d="M870.907 56.5246C870.589 55.979 870.18 55.4806 869.692 55.0472C869.444 54.7851 869.213 54.515 868.956 54.2529C868.487 53.7683 868.07 53.2758 867.618 52.7595C866.385 51.2515 865.288 49.6578 864.338 47.9935C864.037 47.4852 863.292 47.7314 863.505 48.2954C864.146 50.0198 865.079 51.6459 866.271 53.117C866.792 53.7755 867.351 54.4092 867.946 55.0154C868.315 55.3911 868.712 55.7441 869.134 56.0719C869.526 56.4054 869.964 56.6936 870.437 56.9298C870.5 56.9647 870.575 56.9798 870.649 56.9725C870.723 56.9653 870.793 56.9363 870.846 56.89C870.9 56.8436 870.935 56.7826 870.946 56.7165C870.957 56.6504 870.943 56.5829 870.907 56.5246V56.5246Z" fill="#E0E0E0"/>
<path d="M877.989 52.8946C877.581 52.4137 877.097 51.9883 876.553 51.6316C876.192 51.3457 875.838 51.0518 875.489 50.7499C874.789 50.1303 874.168 49.4631 873.53 48.7879C872.923 48.1341 872.383 47.4322 871.917 46.6909C871.385 45.8966 870.968 44.9751 870.41 44.157C870.242 43.8948 869.967 44.1014 870.011 44.3476C870.209 45.261 870.58 46.137 871.11 46.9371C871.613 47.7884 872.169 48.6133 872.777 49.4075C873.374 50.1727 874.048 50.8879 874.789 51.5443C875.554 52.3542 876.495 53.0162 877.555 53.4904C877.98 53.6333 878.21 53.2282 877.989 52.8946Z" fill="#E0E0E0"/>
<path d="M727.654 86.5277C727.967 66.2548 697.518 49.4128 659.644 48.9102C621.771 48.4075 590.814 64.4345 590.501 84.7074C590.188 104.98 620.637 121.822 658.511 122.325C696.385 122.828 727.341 106.801 727.654 86.5277Z" fill="#F0F0F0"/>
<path d="M722.103 86.4539C722.365 69.5114 694.359 55.4023 659.551 54.9403C624.743 54.4784 596.314 67.8385 596.052 84.781C595.791 101.724 623.796 115.833 658.604 116.295C693.412 116.757 721.842 103.396 722.103 86.4539Z" fill="#E0E0E0"/>
<path opacity="0.1" d="M614.383 75.0574C605.225 79.3598 599.43 84.7331 596.958 90.3882C599.106 96.3439 604.799 102.074 614.119 106.771C638.432 119.077 678.448 119.622 703.267 107.955C712.405 103.652 718.2 98.2978 720.672 92.6239C718.544 86.687 712.851 80.9567 703.531 76.2598C679.218 63.9539 639.243 63.4091 614.383 75.0574Z" fill="black"/>
<path d="M608.73 55.3116C595.378 57.04 584.174 68.6133 580.203 80.0925C578.926 83.7561 578.176 87.6076 577.062 91.2336C574.977 97.7033 571.372 103.664 566.506 108.687C564.217 111.073 561.076 112.952 559.172 115.601C558.544 116.465 559.759 118.119 560.874 117.724C564.079 116.36 566.917 114.352 569.181 111.844C571.68 109.404 573.888 106.72 575.765 103.84C579.818 97.753 581.438 91.2712 583.323 84.47C585.008 78.3684 588.121 72.6854 592.44 67.8242C597.059 62.9631 602.541 58.8709 608.649 55.7249C608.831 55.6497 608.973 55.1988 608.73 55.3116Z" fill="#E0E0E0"/>
<path d="M750.861 109.063C749.726 106.771 747.112 105.456 745.431 103.427C743.541 101.115 742.045 98.5494 740.993 95.8179C738.542 89.881 737.509 83.5119 735.037 77.575C732.735 71.9355 728.971 66.9087 724.076 62.9394C721.603 61.0189 718.921 59.3439 716.072 57.9419C714.724 57.2244 713.323 56.5966 711.878 56.0631C711.19 55.8189 710.521 55.6122 709.852 55.4055C708.965 55.1943 708.053 55.0871 707.137 55.0862C707.036 55.0862 706.935 55.3304 707.036 55.368C712.682 58.2366 717.917 61.7525 722.617 65.8327C727.306 70.3577 730.698 75.8995 732.484 81.9525C734.287 87.7767 735.442 93.8076 738.238 99.3311C740.446 103.69 744.58 110.078 750.395 110.397C751.144 110.547 751.063 109.458 750.861 109.063Z" fill="#E0E0E0"/>
<path d="M596.31 110.867C596.148 110.529 595.864 110.153 595.419 110.134C593.939 110.134 593.109 111.111 592.217 112.013C591.326 112.915 590.698 113.76 589.989 114.681C588.439 116.716 587.083 118.872 585.936 121.125C584.113 124.582 583.242 130.049 579.048 131.815C578.602 132.003 578.642 133.093 579.23 133.036C584.863 132.473 586.504 127.137 588.631 123.135C589.773 120.927 591.129 118.821 592.683 116.841C593.453 115.864 594.284 114.962 595.135 114.004C595.986 113.046 596.958 112.219 596.31 110.867Z" fill="#E0E0E0"/>
<path d="M620.664 123.041C620.664 122.29 619.367 121.163 618.638 122.008C617.366 123.782 616.415 125.737 615.821 127.795C615.092 129.673 614.423 131.552 613.795 133.525C613.167 135.498 612.58 137.282 612.012 139.274C611.713 140.229 611.483 141.202 611.323 142.186C611.101 143.247 611.101 144.338 611.323 145.399C611.485 145.981 612.377 146.845 613.005 146.206C613.784 145.237 614.342 144.132 614.646 142.956C614.991 142.073 615.254 141.077 615.538 140.251C616.085 138.372 616.692 136.493 617.321 134.614C617.949 132.736 618.536 130.857 619.185 128.978C620.015 127.085 620.515 125.081 620.664 123.041V123.041Z" fill="#E0E0E0"/>
<path d="M659.646 138.184C660.121 134.696 660.284 131.176 660.132 127.663C660.132 127.005 658.835 126.122 658.612 127.118C657.883 130.594 657.457 134.07 656.951 137.564C656.708 139.255 656.404 140.946 656.14 142.618C656.019 143.482 655.938 144.309 655.877 145.173C655.685 146.016 655.685 146.886 655.877 147.728C656.039 148.142 656.728 148.78 657.214 148.329C657.701 147.879 657.964 146.695 658.268 145.793C658.555 145.045 658.785 144.279 658.957 143.501C659.22 141.622 659.443 139.931 659.646 138.184Z" fill="#E0E0E0"/>
<path d="M699.053 139.931C699.053 139.18 698.851 138.428 698.729 137.677C698.486 136.286 698.223 134.877 697.959 133.487C697.487 130.198 696.652 126.962 695.467 123.83C695.163 123.116 694.069 122.722 693.968 123.83C693.856 127.025 694.142 130.221 694.819 133.356C695.062 134.84 695.285 136.343 695.508 137.827C695.629 138.541 695.751 139.274 695.933 139.988C696.083 141.136 696.535 142.233 697.25 143.182C697.817 143.82 698.385 143.651 698.871 143.182C699.357 142.712 699.114 140.683 699.053 139.931Z" fill="#E0E0E0"/>
<path d="M730.214 134.389C729.489 133.098 728.553 131.92 727.439 130.894C726.871 130.274 726.345 129.636 725.757 129.016C724.683 127.87 723.731 126.705 722.698 125.484C719.88 121.917 717.373 118.147 715.201 114.211C714.512 113.009 712.81 113.591 713.297 114.925C714.763 119.004 716.894 122.85 719.618 126.329C720.809 127.887 722.087 129.385 723.447 130.819C724.291 131.708 725.198 132.543 726.162 133.318C727.06 134.107 728.06 134.788 729.141 135.347C729.286 135.43 729.457 135.465 729.626 135.448C729.796 135.431 729.954 135.363 730.077 135.253C730.2 135.143 730.28 134.999 730.305 134.843C730.33 134.686 730.298 134.527 730.214 134.389V134.389Z" fill="#E0E0E0"/>
<path d="M746.403 125.803C745.47 124.666 744.365 123.659 743.121 122.816C742.297 122.139 741.486 121.444 740.689 120.73C739.089 119.265 737.671 117.687 736.212 116.09C734.823 114.543 733.589 112.883 732.524 111.13C731.309 109.251 730.356 107.072 729.08 105.136C728.695 104.517 728.067 105.005 728.168 105.587C728.619 107.748 729.469 109.82 730.68 111.712C731.829 113.726 733.1 115.677 734.49 117.555C735.855 119.365 737.394 121.057 739.089 122.609C740.838 124.525 742.989 126.091 745.41 127.212C746.383 127.55 746.91 126.592 746.403 125.803Z" fill="#E0E0E0"/>
</g>
<defs>
<clipPath id="clip0_102_144">
<rect width="900" height="603" fill="white"/>
</clipPath>
</defs>
</svg>
